<svg xmlns="http://www.w3.org/2000/svg" width="512" height="512" fill="none"><g clip-path="url(#a)"><path fill="#6366F1" d="M512 256c0 141.385-114.615 256-256 256S0 397.385 0 256 114.615 0 256 0s256 114.615 256 256Z"/><path fill="#fff" d="M128 300.434c0 66.56 57.234 110.995 128 110.995 70.766 0 128-44.435 128-110.995A44.434 44.434 0 0 0 339.566 256H172.434A44.436 44.436 0 0 0 128 300.434ZM207.512 208.488A68.574 68.574 0 0 0 324.572 160a68.573 68.573 0 1 0-117.06 48.488Z"/></g><defs><clipPath id="a"><path fill="#fff" d="M0 0h512v512H0z"/></clipPath></defs></svg>