<svg width="256" height="256" viewBox="0 0 256 256" fill="none" xmlns="http://www.w3.org/2000/svg">
<path d="M0 0H256V256H0V0Z" fill="#98C0E3"/>
<path d="M93.288 181.136C87.0587 181.136 81.8533 179.899 77.672 177.424C73.4907 174.864 70.3333 171.365 68.2 166.928C66.0667 162.491 65 157.328 65 151.44V104.464C65 98.4053 65.9813 93.1147 67.944 88.592C69.992 83.984 73.1067 80.4 77.288 77.84C81.4693 75.28 86.8027 74 93.288 74C99.7733 74 105.064 75.28 109.16 77.84C113.341 80.4 116.413 83.984 118.376 88.592C120.424 93.1147 121.448 98.4053 121.448 104.464V151.44C121.448 157.243 120.381 162.405 118.248 166.928C116.115 171.365 112.957 174.864 108.776 177.424C104.595 179.899 99.432 181.136 93.288 181.136ZM93.288 162.064C95.336 162.064 96.7867 161.424 97.64 160.144C98.5787 158.779 99.1333 157.243 99.304 155.536C99.56 153.744 99.688 152.208 99.688 150.928V104.976C99.688 103.525 99.6027 101.904 99.432 100.112C99.2613 98.2347 98.7067 96.6133 97.768 95.248C96.9147 93.7973 95.4213 93.072 93.288 93.072C91.1547 93.072 89.6187 93.7973 88.68 95.248C87.8267 96.6133 87.3147 98.2347 87.144 100.112C86.9733 101.904 86.888 103.525 86.888 104.976V150.928C86.888 152.208 87.016 153.744 87.272 155.536C87.528 157.243 88.0827 158.779 88.936 160.144C89.8747 161.424 91.3253 162.064 93.288 162.064Z" fill="#053E7B"/>
<path d="M161.743 180.88C154.746 180.88 149.156 179.515 144.975 176.784C140.794 173.968 137.807 170.128 136.015 165.264C134.223 160.315 133.327 154.683 133.327 148.368C133.412 145.808 133.668 143.333 134.095 140.944C134.607 138.469 135.332 136.208 136.271 134.16C137.295 132.027 138.532 130.192 139.983 128.656C141.519 127.035 143.311 125.712 145.359 124.688C142.714 122.725 140.367 119.909 138.319 116.24C136.271 112.485 135.162 107.749 134.991 102.032C134.906 96.2293 135.844 91.2373 137.807 87.056C139.855 82.8747 142.884 79.6747 146.895 77.456C150.906 75.2373 155.855 74.128 161.743 74.128C167.716 74.128 172.666 75.28 176.591 77.584C180.602 79.8027 183.588 83.0027 185.551 87.184C187.514 91.28 188.41 96.2293 188.239 102.032C188.154 107.835 187.13 112.613 185.167 116.368C183.204 120.037 180.858 122.811 178.127 124.688C180.175 125.712 181.924 127.035 183.375 128.656C184.911 130.192 186.148 132.027 187.087 134.16C188.111 136.208 188.879 138.469 189.391 140.944C189.903 143.333 190.159 145.808 190.159 148.368C190.33 154.683 189.476 160.315 187.599 165.264C185.807 170.128 182.82 173.968 178.639 176.784C174.458 179.515 168.826 180.88 161.743 180.88ZM161.743 165.136C164.047 165.136 165.711 164.283 166.735 162.576C167.759 160.869 168.399 158.864 168.655 156.56C168.911 154.171 169.039 151.995 169.039 150.032C169.124 147.387 168.996 144.827 168.655 142.352C168.399 139.877 167.759 137.872 166.735 136.336C165.711 134.715 164.047 133.904 161.743 133.904C159.524 133.904 157.903 134.715 156.879 136.336C155.855 137.872 155.172 139.877 154.831 142.352C154.575 144.741 154.447 147.301 154.447 150.032C154.447 151.995 154.575 154.171 154.831 156.56C155.087 158.949 155.727 160.997 156.751 162.704C157.86 164.325 159.524 165.136 161.743 165.136ZM161.743 117.008C163.194 117.008 164.388 116.453 165.327 115.344C166.266 114.149 166.948 112.4 167.375 110.096C167.887 107.792 168.143 104.933 168.143 101.52C168.143 98.0213 167.588 95.248 166.479 93.2C165.455 91.152 163.876 90.128 161.743 90.128C159.61 90.128 157.946 91.152 156.751 93.2C155.642 95.248 155.087 97.9787 155.087 101.392C155.087 104.805 155.3 107.707 155.727 110.096C156.239 112.4 157.007 114.149 158.031 115.344C159.055 116.453 160.292 117.008 161.743 117.008Z" fill="#053E7B"/>
<path fill-rule="evenodd" clip-rule="evenodd" d="M72.5788 186.03C72.5358 186.004 72.493 185.979 72.4505 185.953C66.6208 182.383 62.1508 177.425 59.1875 171.261C56.2891 165.232 55 158.538 55 151.44V104.464C55 97.341 56.153 90.6427 58.7706 84.6111C58.7822 84.5842 58.794 84.5574 58.8059 84.5306C61.6518 78.1274 66.1055 72.9611 72.0665 69.3115L72.0665 69.3115C78.2497 65.5258 85.5396 64 93.288 64C101.007 64 108.286 65.5145 114.42 69.3352C120.364 72.9846 124.776 78.1545 127.532 84.569C127.613 84.749 127.692 84.9297 127.77 85.1109C128.072 84.3317 128.4 83.5634 128.755 82.8069C128.778 82.7569 128.802 82.707 128.826 82.6573C131.761 76.6666 136.22 71.933 142.054 68.7057C147.91 65.4664 154.632 64.128 161.743 64.128C168.909 64.128 175.699 65.4982 181.542 68.895C187.344 72.1336 191.753 76.8813 194.586 82.8971C197.38 88.7465 198.432 95.3272 198.237 102.253C198.129 109.044 196.923 115.465 194.029 121.001C194.015 121.029 194 121.057 193.985 121.085C193.491 122.007 192.968 122.907 192.412 123.78C193.912 125.652 195.15 127.707 196.139 129.905C197.527 132.731 198.524 135.741 199.177 138.884C199.828 141.939 200.15 145.059 200.159 148.23C200.342 155.534 199.359 162.438 196.966 168.766C194.467 175.521 190.188 181.063 184.225 185.078C184.186 185.105 184.146 185.131 184.107 185.157C177.753 189.306 169.991 190.88 161.743 190.88C153.552 190.88 145.845 189.295 139.507 185.157C139.468 185.131 139.428 185.105 139.389 185.078C134.038 181.475 130.042 176.642 127.473 170.806C127.413 170.936 127.353 171.065 127.292 171.194L127.261 171.261C124.297 177.425 119.827 182.383 113.998 185.953C113.955 185.979 113.912 186.004 113.869 186.03C107.788 189.629 100.756 191.136 93.288 191.136C85.7631 191.136 78.6797 189.641 72.5788 186.03ZM137.797 131.44C137.244 132.285 136.736 133.192 136.271 134.16C135.332 136.208 134.607 138.469 134.095 140.944C133.668 143.333 133.412 145.808 133.327 148.368C133.327 154.683 134.223 160.315 136.015 165.264C137.807 170.128 140.794 173.968 144.975 176.784C149.156 179.515 154.746 180.88 161.743 180.88C168.826 180.88 174.458 179.515 178.639 176.784C182.82 173.968 185.807 170.128 187.599 165.264C189.476 160.315 190.33 154.683 190.159 148.368C190.159 145.808 189.903 143.333 189.391 140.944C188.879 138.469 188.111 136.208 187.087 134.16C186.673 133.22 186.202 132.338 185.672 131.514C185 130.468 184.234 129.515 183.375 128.656C181.924 127.035 180.175 125.712 178.127 124.688C180.703 122.917 182.937 120.349 184.829 116.984C184.943 116.781 185.056 116.576 185.167 116.368C187.13 112.613 188.154 107.835 188.239 102.032C188.41 96.2293 187.514 91.28 185.551 87.184C183.588 83.0027 180.602 79.8027 176.591 77.584C172.666 75.28 167.716 74.128 161.743 74.128C155.855 74.128 150.906 75.2373 146.895 77.456C142.884 79.6747 139.855 82.8747 137.807 87.056C135.844 91.2373 134.906 96.2293 134.991 102.032C135.162 107.749 136.271 112.485 138.319 116.24C138.451 116.477 138.585 116.711 138.72 116.941C140.672 120.27 142.885 122.852 145.359 124.688C143.311 125.712 141.519 127.035 139.983 128.656C139.191 129.495 138.462 130.423 137.797 131.44ZM156.879 136.336C155.855 137.872 155.172 139.877 154.831 142.352C154.575 144.741 154.447 147.301 154.447 150.032C154.447 151.995 154.575 154.171 154.831 156.56C155.087 158.949 155.727 160.997 156.751 162.704C157.86 164.325 159.524 165.136 161.743 165.136C164.047 165.136 165.711 164.283 166.735 162.576C167.759 160.869 168.399 158.864 168.655 156.56C168.911 154.171 169.039 151.995 169.039 150.032C169.124 147.387 168.996 144.827 168.655 142.352C168.399 139.877 167.759 137.872 166.735 136.336C165.711 134.715 164.047 133.904 161.743 133.904C159.524 133.904 157.903 134.715 156.879 136.336ZM166.479 93.2C165.455 91.152 163.876 90.128 161.743 90.128C159.61 90.128 157.946 91.152 156.751 93.2C155.642 95.248 155.087 97.9787 155.087 101.392C155.087 104.805 155.3 107.707 155.727 110.096C156.239 112.4 157.007 114.149 158.031 115.344C159.055 116.453 160.292 117.008 161.743 117.008C163.194 117.008 164.388 116.453 165.327 115.344C166.266 114.149 166.948 112.4 167.375 110.096C167.887 107.792 168.143 104.933 168.143 101.52C168.143 98.0213 167.588 95.248 166.479 93.2ZM165.874 109.181C165.874 109.181 165.873 109.179 165.871 109.176C165.873 109.179 165.874 109.181 165.874 109.181ZM157.2 109.565C157.2 109.565 157.201 109.563 157.203 109.559C157.201 109.563 157.2 109.566 157.2 109.565ZM118.376 88.592C116.413 83.984 113.341 80.4 109.16 77.84C105.064 75.28 99.7733 74 93.288 74C86.8027 74 81.4693 75.28 77.288 77.84C73.1067 80.4 69.992 83.984 67.944 88.592C65.9813 93.1147 65 98.4053 65 104.464V151.44C65 157.328 66.0667 162.491 68.2 166.928C70.3333 171.365 73.4907 174.864 77.672 177.424C81.8533 179.899 87.0587 181.136 93.288 181.136C99.432 181.136 104.595 179.899 108.776 177.424C112.957 174.864 116.115 171.365 118.248 166.928C120.381 162.405 121.448 157.243 121.448 151.44V104.464C121.448 98.4053 120.424 93.1147 118.376 88.592ZM99.432 100.112C99.6027 101.904 99.688 103.525 99.688 104.976V150.928C99.688 152.208 99.56 153.744 99.304 155.536C99.1333 157.243 98.5787 158.779 97.64 160.144C96.7867 161.424 95.336 162.064 93.288 162.064C91.3253 162.064 89.8747 161.424 88.936 160.144C88.0827 158.779 87.528 157.243 87.272 155.536C87.016 153.744 86.888 152.208 86.888 150.928V104.976C86.888 103.525 86.9733 101.904 87.144 100.112C87.3147 98.2347 87.8267 96.6133 88.68 95.248C89.6187 93.7973 91.1547 93.072 93.288 93.072C95.4213 93.072 96.9147 93.7973 97.768 95.248C98.7067 96.6133 99.2613 98.2347 99.432 100.112Z" fill="white"/>
</svg>
