<svg width="256" height="256" viewBox="0 0 256 256" fill="none" xmlns="http://www.w3.org/2000/svg">
<path d="M0 0H256V256H0V0Z" fill="#98C0E3"/>
<path d="M87.208 179.216V96.656C86.2693 97.168 85.2027 97.68 84.008 98.192C82.8133 98.704 81.5333 99.2587 80.168 99.856C78.888 100.368 77.608 100.88 76.328 101.392C75.1333 101.904 74.024 102.416 73 102.928V87.056C73.9387 86.544 75.2613 85.8613 76.968 85.008C78.6747 84.0693 80.5093 83.0453 82.472 81.936C84.4347 80.8267 86.2693 79.7173 87.976 78.608C89.6827 77.4133 90.9627 76.3893 91.816 75.536H108.584V179.216H87.208Z" fill="#053E7B"/>
<path d="M154.634 181.136C148.405 181.136 143.199 179.899 139.018 177.424C134.837 174.864 131.679 171.365 129.546 166.928C127.413 162.491 126.346 157.328 126.346 151.44V104.464C126.346 98.4053 127.327 93.1147 129.29 88.592C131.338 83.984 134.453 80.4 138.634 77.84C142.815 75.28 148.149 74 154.634 74C161.119 74 166.41 75.28 170.506 77.84C174.687 80.4 177.759 83.984 179.722 88.592C181.77 93.1147 182.794 98.4053 182.794 104.464V151.44C182.794 157.243 181.727 162.405 179.594 166.928C177.461 171.365 174.303 174.864 170.122 177.424C165.941 179.899 160.778 181.136 154.634 181.136ZM154.634 162.064C156.682 162.064 158.133 161.424 158.986 160.144C159.925 158.779 160.479 157.243 160.65 155.536C160.906 153.744 161.034 152.208 161.034 150.928V104.976C161.034 103.525 160.949 101.904 160.778 100.112C160.607 98.2347 160.053 96.6133 159.114 95.248C158.261 93.7973 156.767 93.072 154.634 93.072C152.501 93.072 150.965 93.7973 150.026 95.248C149.173 96.6133 148.661 98.2347 148.49 100.112C148.319 101.904 148.234 103.525 148.234 104.976V150.928C148.234 152.208 148.362 153.744 148.618 155.536C148.874 157.243 149.429 158.779 150.282 160.144C151.221 161.424 152.671 162.064 154.634 162.064Z" fill="#053E7B"/>
<path fill-rule="evenodd" clip-rule="evenodd" d="M73 87.056C73.9387 86.544 75.2613 85.8613 76.968 85.008C78.6747 84.0693 80.5093 83.0453 82.472 81.936C84.4347 80.8267 86.2693 79.7173 87.976 78.608C89.6827 77.4133 90.9627 76.3893 91.816 75.536H108.584V179.216H87.208V96.656C86.2693 97.168 85.2027 97.68 84.008 98.192C83.6785 98.3332 83.3425 98.4777 83 98.6254C82.1008 99.0132 81.1568 99.4234 80.168 99.856L76.328 101.392C75.1333 101.904 74.024 102.416 73 102.928V87.056ZM77.208 112C74.1648 113.412 70.6076 113.205 67.7427 111.435C64.7945 109.612 63 106.394 63 102.928V87.056C63 83.3966 64.9989 80.0294 68.2115 78.277C69.2678 77.7009 70.6528 76.9868 72.318 76.1527C73.9384 75.2606 75.6826 74.2867 77.5514 73.2304C79.2954 72.2446 80.9033 71.2736 82.3797 70.3185C83.8053 69.3134 84.5026 68.7073 84.7449 68.4649C86.6203 66.5896 89.1638 65.536 91.816 65.536H108.584C114.107 65.536 118.584 70.0131 118.584 75.536V88.7317C119.025 87.327 119.534 85.9525 120.117 84.6111C120.121 84.6001 120.126 84.5891 120.131 84.5782C120.138 84.5623 120.145 84.5465 120.152 84.5306C122.998 78.1274 127.451 72.9611 133.412 69.3115L138.634 77.84C134.453 80.4 131.338 83.984 129.29 88.592C127.327 93.1147 126.346 98.4053 126.346 104.464V151.44C126.346 157.328 127.413 162.491 129.546 166.928C131.679 171.365 134.837 174.864 139.018 177.424C143.199 179.899 148.405 181.136 154.634 181.136C160.778 181.136 165.941 179.899 170.122 177.424C174.303 174.864 177.461 171.365 179.594 166.928C181.727 162.405 182.794 157.243 182.794 151.44V104.464C182.794 98.4053 181.77 93.1147 179.722 88.592C177.759 83.984 174.687 80.4 170.506 77.84C166.41 75.28 161.119 74 154.634 74C148.149 74 142.815 75.28 138.634 77.84L133.412 69.3115C139.596 65.5258 146.886 64 154.634 64C162.353 64 169.632 65.5146 175.767 69.3354C181.71 72.9847 186.122 78.1545 188.878 84.5688C191.594 90.614 192.794 97.3293 192.794 104.464V151.44C192.794 158.482 191.494 165.139 188.638 171.194L188.607 171.261C185.643 177.425 181.173 182.383 175.344 185.953C175.301 185.979 175.258 186.004 175.215 186.03C169.134 189.629 162.102 191.136 154.634 191.136C147.109 191.136 140.026 189.641 133.925 186.03C133.882 186.004 133.839 185.979 133.796 185.953C127.967 182.383 123.497 177.425 120.533 171.261C119.775 169.684 119.128 168.062 118.584 166.399V179.216C118.584 184.739 114.107 189.216 108.584 189.216H87.208C81.6852 189.216 77.208 184.739 77.208 179.216V112ZM148.618 155.536C148.362 153.744 148.234 152.208 148.234 150.928V104.976C148.234 103.525 148.319 101.904 148.49 100.112C148.661 98.2347 149.173 96.6133 150.026 95.248C150.965 93.7973 152.501 93.072 154.634 93.072C156.767 93.072 158.261 93.7973 159.114 95.248C160.053 96.6133 160.607 98.2347 160.778 100.112C160.949 101.904 161.034 103.525 161.034 104.976V150.928C161.034 152.208 160.906 153.744 160.65 155.536C160.479 157.243 159.925 158.779 158.986 160.144C158.133 161.424 156.682 162.064 154.634 162.064C152.671 162.064 151.221 161.424 150.282 160.144C149.429 158.779 148.874 157.243 148.618 155.536Z" fill="white"/>
</svg>
