<svg width="136" height="136" viewBox="0 0 136 136" fill="none" xmlns="http://www.w3.org/2000/svg">
<path d="M135.89 68.1201C135.89 105.55 105.55 135.89 68.1201 135.89C30.6901 135.89 0.350098 105.55 0.350098 68.1201C0.350098 30.6901 30.7001 0.360107 68.1201 0.360107C105.54 0.360107 135.89 30.7001 135.89 68.1201Z" fill="#007B3B"/>
<path d="M68.1201 6.51011C102.15 6.51011 129.74 34.1001 129.74 68.1301C129.74 102.16 102.15 129.75 68.1201 129.75C34.0901 129.75 6.5001 102.16 6.5001 68.1301C6.5001 34.0901 34.0901 6.51011 68.1201 6.51011ZM68.1201 3.59011C50.8801 3.59011 34.6701 10.3001 22.4801 22.4901C10.2901 34.6801 3.5801 50.8901 3.5801 68.1301C3.5801 85.3701 10.2901 101.58 22.4801 113.77C34.6701 125.96 50.8801 132.67 68.1201 132.67C85.3601 132.67 101.57 125.96 113.76 113.77C125.95 101.58 132.66 85.3701 132.66 68.1301C132.66 50.8901 125.95 34.6801 113.76 22.4901C101.57 10.3001 85.3601 3.59011 68.1201 3.59011Z" fill="white"/>
<path d="M52.9901 87.4899C52.9801 87.4799 52.9801 87.4799 52.9901 87.4899Z" fill="white"/>
<path d="M100.54 55.2599L98.1701 61.7999H101.79L102.68 59.2899H106.22V77.2299L104.21 77.2399L102.75 81.2699L112.72 81.2799L114.21 77.2399L111.42 77.2299L111.41 59.2999H115.58L115.57 61.7999L118.08 61.7899L120.45 55.2499L100.54 55.2599Z" fill="white"/>
<path d="M95.8701 59.2899L95.8801 81.2899H92.8101C92.8101 81.2899 78.5301 66.2399 77.5701 65.2299C77.5701 67.3599 77.5601 77.2499 77.5601 77.2499H80.3801L78.9201 81.3099H69.7101L71.1801 77.2499H72.7601V59.3099H69.4001L70.8601 55.2599H76.5101C76.5101 55.2599 87.4301 66.6499 91.2201 70.6599C91.2201 69.4299 91.2101 59.3099 91.2101 59.3099H88.4701L89.9101 55.2499H99.3501L97.8901 59.3099L95.8701 59.2899Z" fill="white"/>
<path d="M54.5901 90.5699C54.2301 90.4399 53.5901 90.7099 53.5901 90.7099C53.4401 89.7999 52.4101 88.5399 52.4101 88.5399C52.4101 88.5399 54.4601 90.4499 54.5901 90.5699C54.6101 90.5199 55.2501 89.1399 53.9601 87.9399C52.0301 86.1499 48.3501 82.7799 48.3501 82.7999C48.6101 83.6199 50.0901 86.2899 49.3101 91.2299L51.2101 91.5899L51.4401 91.9699C51.4401 91.9699 53.6101 92.2599 53.9501 92.5799C53.9501 92.5799 54.7001 93.0999 53.9001 93.8199C53.9001 93.8199 55.1301 93.5799 55.8201 92.9099C55.8201 92.9099 56.4501 92.3699 55.7101 91.6099L54.5901 90.5699Z" fill="white"/>
<path d="M44.3501 78.9599L17.1401 53.5599C15.8301 52.2899 16.3501 50.6699 16.3501 50.6699L14.1201 55.5699C13.5201 57.1099 14.4401 58.0799 15.0801 58.5999C15.7201 59.1199 36.8001 76.1699 36.8001 76.1699L36.8201 76.8799L15.8701 60.7999C14.8301 60.0099 14.9501 58.7399 14.9501 58.7399L13.4301 61.8599C12.6901 63.6199 14.5101 64.7399 15.2701 65.2599C16.0301 65.7799 36.9101 80.3299 36.9101 80.3299L37.0901 81.1999C37.0901 81.1999 16.8401 67.7299 16.1001 67.2699C15.2001 66.7199 15.2701 65.4399 15.2701 65.4399L13.7901 68.6099C13.1701 69.8999 14.9401 70.7999 15.7201 71.2699C16.1801 71.5499 27.5101 78.3099 36.8401 83.8499H24.7301C22.9501 83.8499 22.3501 83.3199 22.3501 83.3199L23.9701 84.8399C24.2501 85.0899 24.9801 86.0099 26.0401 86.0099C26.8001 86.0099 30.5101 86.0199 30.5101 86.0199L31.3901 86.3999L27.4901 86.6999C26.7101 86.7299 26.5001 86.8199 25.4701 86.2399C25.4601 86.2299 27.2001 87.9299 27.2001 87.9299C27.6801 88.3399 28.0701 88.7499 28.9001 88.6799C29.7301 88.6099 34.6201 87.7999 34.6201 87.7999L35.4001 88.1499L30.2701 89.2699C29.1001 89.5299 28.2601 88.9299 28.2601 88.9299C28.2601 88.9299 29.2301 89.8799 29.8701 90.4999C30.5401 91.1399 31.1301 91.5399 33.2501 90.9499C34.0901 90.7099 38.2601 89.3899 38.2601 89.3899L40.9501 90.5599C43.6501 94.2999 47.0101 96.2799 47.0101 96.2799C46.3701 97.0399 46.9101 97.9299 46.9101 97.9299C47.4701 96.7999 48.7201 96.1799 49.6601 96.3099C50.4801 96.4299 50.2601 97.4299 50.2901 97.3899C50.8001 96.7499 51.2101 95.9799 50.7001 95.3199C50.0801 94.5299 48.4901 95.2099 48.4901 95.2099L46.9401 92.3799L49.0401 91.1799C50.2001 83.9099 44.3501 78.9599 44.3501 78.9599Z" fill="white"/>
<path d="M60.3901 55.2499L58.8901 59.2999L61.4201 59.2899V71.0499C61.4201 73.2099 61.0301 74.4199 59.9701 75.4899C59.1401 76.3299 57.7301 76.8599 56.2801 76.8599C54.5301 76.8599 52.9601 76.2699 51.9801 75.2499C50.9901 74.2699 50.5101 72.6599 50.5101 70.3199V55.2499L43.1701 55.2699L41.6801 59.2999L44.8101 59.2799V70.4799C44.8101 70.5399 44.8101 70.5899 44.8101 70.6399C44.0201 69.6099 43.3001 68.8499 42.9201 68.3999C42.5701 67.9899 29.9301 53.7999 29.9301 53.7999C28.8401 52.5899 29.2201 51.6399 29.2501 51.5699L27.7801 54.8699C27.4501 55.7799 28.0601 56.3699 28.5201 56.8899C28.9701 57.4099 42.2401 71.2799 42.2401 71.2799L42.1501 72.0399L29.5801 59.4999C28.5701 58.4599 28.8501 57.6799 28.8901 57.5699L27.5401 60.6099C27.2301 61.5499 28.2001 62.1699 28.8701 62.8199C29.5801 63.4999 43.5701 76.5799 44.7101 77.6199C47.1601 79.8499 48.3501 82.7899 48.3501 82.7899C48.5601 81.6899 48.6201 80.6399 48.5501 79.6199C51.0601 81.5699 54.1401 81.8099 55.5101 81.8099C62.0101 81.8099 66.2101 77.6099 66.2101 71.1099L66.2401 59.2899H68.1101L69.5601 55.2399H60.3901V55.2499Z" fill="white"/>
<path d="M28.8901 57.5699L28.9001 57.5599C28.9001 57.5599 28.8901 57.5599 28.8901 57.5699Z" fill="white"/>
<path d="M119.86 60.9099C120.04 60.8799 120.13 60.7699 120.13 60.6199C120.13 60.4099 120.01 60.3099 119.76 60.3099H119.34V61.4199H119.46V60.9199H119.72L120.04 61.4099V61.4199H120.17L119.86 60.9099ZM119.68 60.8099H119.46V60.4099H119.75C119.83 60.4099 120.01 60.4299 120.01 60.6099C120.01 60.7899 119.84 60.8099 119.68 60.8099Z" fill="white"/>
<path d="M119.69 59.9299C119.18 59.9299 118.76 60.3499 118.76 60.8599C118.76 61.3699 119.18 61.7899 119.69 61.7899C120.2 61.7899 120.62 61.3699 120.62 60.8599C120.62 60.3499 120.21 59.9299 119.69 59.9299ZM119.69 61.7099C119.22 61.7099 118.85 61.3399 118.85 60.8599C118.85 60.3799 119.21 60.0099 119.69 60.0099C120.17 60.0099 120.53 60.3699 120.53 60.8599C120.53 61.3299 120.16 61.7099 119.69 61.7099Z" fill="white"/>
</svg>
