<svg width="244" height="72" viewBox="0 0 244 72" fill="none" xmlns="http://www.w3.org/2000/svg">
<path d="M46.8 59L38.9 18.6L39.5 58.6L31.7 10.5L30.3 46L29.7 62L29.6 60.3L26.7 32.7L23.4 0.799999L20.1 32.7L17.3 60.3L17.1 62L16.5 46L14.9 10.7L7.3 58.5L8 18.6L0 59L23.4 71.2L46.8 59Z" fill="#0057B8"/>
<path d="M80.7 31.5C78.8 27.7 77.8 25 75.9 19.1H75.6C76.5 30.6 76.5 32.6 76.8 45.6H81.2V52.8H62.7V45.6H66.9V17.5H62.7V10.3H83.2L92.4 29C94.5 33.4 95.6 36.1 97.7 42.3H98C96.9 29.8 96.8 27.7 96.8 17.4H92.4V10.2H110.8V17.4H106.6V52.6H91.6L80.7 31.5Z" fill="#0057B8"/>
<path d="M153 38.1C152.9 41.1 152.3 43.4 151 45.6C148.2 50.7 141.5 53.7 133.4 53.7C126.7 53.7 121.1 51.8 117.1 48.2C113 44.5 110.9 38.5 110.9 31.1C110.9 24.9 112.4 19.7 115.3 15.9C118.7 11.5 123.7 9.2 130.4 9.2C134.3 9.2 137.8 10.1 140 11.9C141 12.7 141.6 13.4 142.5 14.9V10.2H152.6V26H141.6C141.4 20.1 138.3 16.9 133.3 16.9C127 16.9 123.6 22.3 123.6 32C123.6 41.1 127 46.2 133.3 46.2C137.9 46.2 140.8 43.2 141.1 38.2H153V38.1Z" fill="#0057B8"/>
<path d="M167.2 38.1C167.3 43.7 169.4 46.1 174.1 46.1C178.2 46.1 180.6 44.4 180.6 41.7C180.6 39.5 179.7 38.7 175.2 37.1L165.7 33.6C159.7 31.4 156.9 27.9 156.9 22.4C156.9 14.1 162.3 9.3 171.6 9.3C177.1 9.3 180.3 10.8 182.1 14.2V10.3H191.8V23.7H182.1C182.1 18.9 179.9 16.8 174.9 16.8C171 16.8 168.9 18.2 168.9 20.7C168.9 22.8 169.8 23.5 174.6 25.2L182.1 27.8C190.1 30.6 192.8 33.8 192.8 40.3C192.8 48.9 187.3 53.6 177.3 53.6C171.4 53.6 168.3 52.1 166.4 48.4V52.5H156.7V38.1H167.2Z" fill="#0057B8"/>
<path d="M223.1 33.6L218.5 19.6L213.9 33.6H223.1ZM240.7 45.5H243.2V52.7H223V45.5H227.8L226 40.6H210.9L209.1 45.5H213.9V52.7H195.6V45.5H198.2L212.3 10.3H226.7L240.7 45.5Z" fill="#0057B8"/>
<path d="M68 60.4C64.5 60.4 62.6 62.5 62.6 65.8C62.6 69.2 64.4 71.2 68 71.2C70.3 71.2 72.5 70.1 72.5 67.4H71C71 69.1 69.6 70.1 68.1 70.1C65.5 70.1 64.2 68.2 64.2 65.7C64.2 62.7 65.6 61.3 68.1 61.3C69.9 61.3 71.1 62.3 71.3 64.2H72.5V60.4H71.3V61.7C70.6 60.9 69 60.4 68 60.4Z" fill="#0057B8"/>
<path d="M79.4 60.4C75.9 60.4 74 62.5 74 65.8C74 69.2 75.8 71.2 79.4 71.2C83 71.2 84.8 69.1 84.8 65.8C84.7 62.5 82.9 60.4 79.4 60.4ZM79.4 70.3C77 70.3 75.5 68.4 75.5 65.9C75.5 62.9 76.9 61.5 79.4 61.5C81.8 61.5 83.3 62.9 83.3 65.9C83.2 68.4 81.8 70.3 79.4 70.3Z" fill="#0057B8"/>
<path d="M90.5 60.6H85.5V61.6H87.2V70.1H85.5V71.2H94.3V67.6H93V70.1H88.6V61.6H90.5V60.6Z" fill="#0057B8"/>
<path d="M100.5 60.6H95.5V61.6H97.1V70.1H95.5V71.2H104.2V67.6H103V70.1H98.6V61.6H100.5V60.6Z" fill="#0057B8"/>
<path d="M114.6 60.6H105.4V61.6H107V70.1H105.4V71.2H114.6V67.9H113.4V70.1H108.4V66.3H110.8V67.9H112V63.8H110.8V65.3H108.4V61.6H113.4V63.8H114.6V60.6Z" fill="#0057B8"/>
<path d="M121.4 60.4C117.9 60.4 116 62.5 116 65.8C116 69.2 117.8 71.2 121.4 71.2C122.6 71.2 123.8 70.5 124.5 69.5V71H125.8V67H127.2V66H122.7V67H124.5C124.5 68.9 123.3 70.3 121.4 70.3C118.8 70.3 117.5 68.4 117.5 65.9C117.5 62.9 118.9 61.5 121.4 61.5C123.2 61.5 124.3 62.6 124.5 64.4H125.7V60.6H124.5V61.9C123.9 60.9 122.5 60.4 121.4 60.4Z" fill="#0057B8"/>
<path d="M137.2 60.6H127.9V61.6H129.5V70.1H127.9V71.2H137.2V67.9H135.9V70.1H131V66.3H133.3V67.9H134.6V63.8H133.3V65.3H131V61.6H135.9V63.8H137.2V60.6Z" fill="#0057B8"/>
<path d="M147 60.6H142.5V61.6H144.1V70.1H142.5V71.1H147.2V70.1H145.6V66.5H146.9C148.9 66.5 149.1 66.9 149.7 68.8L150.4 71.1H152.7V70.1H151.5L151.1 68.5C150.9 67.9 150.8 67.3 150.5 66.9C150.2 66.5 149.9 66.1 149.2 66.1C150.7 66 151.6 64.9 151.6 63.4C151.4 60.7 149.1 60.6 147 60.6ZM145.5 65.5V61.6H146.7C148.1 61.6 149.9 61.6 149.9 63.4C149.9 65.5 148.3 65.5 146.7 65.5H145.5Z" fill="#0057B8"/>
<path d="M162.8 60.6H153.6V61.6H155.2V70.1H153.6V71.2H162.8V67.9H161.5V70.1H156.6V66.3H159V67.9H160.2V63.8H159V65.3H156.6V61.6H161.5V63.8H162.8V60.6Z" fill="#0057B8"/>
<path d="M169.6 60.4C166.1 60.4 164.2 62.5 164.2 65.8C164.2 69.2 166 71.2 169.6 71.2C171.9 71.2 174.1 70.1 174.1 67.4H172.6C172.6 69.1 171.2 70.1 169.7 70.1C167.1 70.1 165.8 68.2 165.8 65.7C165.8 62.7 167.2 61.3 169.7 61.3C171.5 61.3 172.7 62.3 172.9 64.2H174.1V60.4H172.9V61.7C172.2 60.9 170.6 60.4 169.6 60.4Z" fill="#0057B8"/>
<path d="M180 60.6H175.5V61.6H177.1V70.1H175.5V71.1H180.2V70.1H178.6V66.5H179.9C181.9 66.5 182.1 66.9 182.7 68.8L183.4 71.1H185.7V70.1H184.5L184.1 68.5C183.9 67.9 183.8 67.3 183.5 66.9C183.2 66.5 182.9 66.1 182.2 66.1C183.7 66 184.6 64.9 184.6 63.4C184.4 60.7 182.1 60.6 180 60.6ZM178.5 65.5V61.6H179.7C181.1 61.6 182.9 61.6 182.9 63.4C182.9 65.5 181.3 65.5 179.7 65.5H178.5Z" fill="#0057B8"/>
<path d="M196.6 60.6H192.2V61.6H193.8V67.1C193.8 69 193 70.3 191 70.3C188.7 70.3 188.2 68.6 188.2 67.1V61.6H189.9V60.6H185.3V61.6H186.7V67.1C186.7 69.2 187.5 71.3 190.9 71.3C193.7 71.3 195.1 69.9 195.1 67.1V61.6H196.5L196.6 60.6Z" fill="#0057B8"/>
<path d="M202.3 60.6H197.7V61.6H199.3V70.1H197.7V71.2H202.3V70.1H200.7V61.6H202.3V60.6Z" fill="#0057B8"/>
<path d="M212.9 60.6H203.5V64.1H204.7V61.6H207.5V70.1H205.7V71.2H210.6V70.1H208.9V61.6H211.7V64.1H212.9V60.6Z" fill="#0057B8"/>
<path d="M218.7 60.6H214V61.6H215.6V70.1H214V71.2H218.7V70.1H217V61.6H218.7V60.6Z" fill="#0057B8"/>
<path d="M231.4 60.6H226.8V61.6H228.4V69.5L223.5 60.6H219.7V61.6H221.4V70.1H219.7V71.2H224.3V70.1H222.7V61.9L227.8 71.2H229.7V61.6H231.4V60.6Z" fill="#0057B8"/>
<path d="M237.4 60.4C233.9 60.4 232 62.5 232 65.8C232 69.2 233.8 71.2 237.4 71.2C238.6 71.2 239.8 70.5 240.5 69.5V71H241.8V67H243.2V66H238.7V67H240.5C240.5 68.9 239.3 70.3 237.4 70.3C234.8 70.3 233.5 68.4 233.5 65.9C233.5 62.9 234.9 61.5 237.4 61.5C239.2 61.5 240.3 62.6 240.5 64.4H241.7V60.6H240.4V61.9C239.9 60.9 238.5 60.4 237.4 60.4Z" fill="#0057B8"/>
</svg>
