<svg width="446" height="217" viewBox="0 0 446 217" fill="none" xmlns="http://www.w3.org/2000/svg">
<path d="M0.399902 11.7002H445.8V216.6H0.399902V11.7002Z" fill="#016755"/>
<path d="M97.4999 144L78.5999 162.9H26.8999V33.2998H77.6999L97.6999 51.9998V144H97.4999ZM52.9999 59.1998V140H65.4999V59.1998H52.9999ZM107.1 33.2998H136.3V162.9H107.1V33.2998ZM216.4 82.9998H187.9V57.5998H175.2V138.4H187.9V107.4H216.4V144L197 162.7H167L146.1 144V51.9998L165.3 33.2998H197.1L216.5 51.9998V82.9998H216.4ZM255 88.7998H255.4L274.3 33.3998H304.4L279.2 93.6998L308.4 162.7H276.8L255.4 107.5H255V162.7H225.6V33.2998H255V88.7998ZM403.7 33.2998L424.4 51.9998V75.1998H395V57.5998H383V84.0998L404.4 85.8998L424.4 104.6V144L405 162.7H372.7L353.8 144V121.3H383V138.4H395V111.2L374.1 109.6L353.8 90.9998V51.9998L373 33.2998H403.7Z" fill="#010202"/>
<path d="M95.8001 142.2L77.0001 160.9H25.1001V31.4999H75.9001L95.9001 50.3999V142.1H95.8001V142.2ZM51.2001 57.1999V138H63.7001V57.1999H51.2001ZM105.5 31.4999H134.7V161.1H105.5V31.4999ZM214.7 81.1999H186.2V55.9999H173.7V136.6H186.2V105.6H214.7V142.1L195.5 160.8H165.2L144.3 142.1V50.0999L163.7 31.3999H195.5L214.7 50.0999V81.1999ZM253.4 86.7999H253.6L272.8 31.5999H302.9L277.5 92.1999L306.7 161H275L253.6 105.8H253.4V161H224V31.4999H253.4V86.7999ZM401.9 31.4999L422.6 50.1999V73.0999H393.4V55.9999H381.2V82.0999L402.6 84.0999L422.6 102.8V142.2L403.4 160.9H371L352.1 142.2V119.5H381.3V136.6H393.5V109.4L372.3 107.8L352.1 88.9999V50.2999L371.3 31.5999H401.9V31.4999Z" fill="white"/>
<path d="M49.4001 174.5L57.0001 178.3V182.8H46.3001V179.5H41.8001V184.6L49.6001 185L56.9001 188.8V196.6L50.0001 200.4H38.2001L31.1001 196.6V191.9H41.8001V195.5H46.3001V190.2L38.7001 189.8L31.1001 186.2V178.4L38.2001 174.6L49.4001 174.5ZM76.6001 179.4V186.7H72.8001V179.4H76.6001ZM86.8001 178.3L79.7001 174.5H62.1001V200.3H72.8001V191.4H79.9001L87.0001 187.6C87.1001 187.6 86.8001 178.3 86.8001 178.3ZM105.1 179.4V195.4H100.6V179.4H105.1ZM115.8 178.3L108.7 174.5H97.3001L90.2001 178.3V196.6L97.3001 200.4H109.3L116.2 196.6L115.8 178.3ZM136.5 179.4V185H132V179.4H136.5ZM146.7 178.3L139.6 174.5H121.3V200.3H132V189.8H136.5V200.3H147V189.8L141.7 187.6L147 185.2V178.3H146.7ZM172.4 179.4H166.4V200.3H155.7V179.4H149.7V174.5H172.4V179.4ZM175.7 174.5H186.4V200.3H175.7V174.5ZM218 200.3H209.1L202.2 187.6V200.3H192.2V174.5H201.1L208 187V174.5H218V200.3ZM248.5 184.3H238V179.4H232.9V195.4H238V191.8H235.1V186.7H248.5V196.5L241.6 200.3H229.8L222.2 196.5V178.2L229.3 174.4H241.3L248.4 178.2V184.3H248.5ZM296.4 184.3H285.7V179.4H280.8V195.4H285.7V191.8H283V186.7H296.4V196.5L289.5 200.3H277.7L270.1 196.5V178.2L277.2 174.4H289.2L296.3 178.2L296.4 184.3ZM316 179.4V195.4H311.5V179.4H316ZM326.4 178.3L319.3 174.5H307.7L300.6 178.3V196.6L307.7 200.4H319.7L326.6 196.6L326.4 178.3ZM346.9 179.4V195.4H342.4V179.4H346.9ZM357.6 178.3L350.5 174.5H338.9L331.8 178.3V196.6L338.9 200.4H350.9L357.8 196.6L357.6 178.3ZM378.1 179.4V195.4H373.6V179.4H378.1ZM388.8 178.3L381.7 174.5H363.2V200.3H382.1L389 196.5C389 196.6 388.8 178.3 388.8 178.3ZM411.5 174.5L418.8 178.3V182.8H408.3V179.5H403.8V184.6L411.6 185L418.7 188.8V196.6L411.8 200.4H400L393.1 196.6V191.9H403.8V195.5H408.3V190.2L400.7 189.8L393.1 186.2V178.4L400 174.6L411.5 174.5Z" fill="#010202"/>
<path d="M48.8002 173.6L56.1002 177.4V182.1H45.4002V178.5H41.2002V183.6L48.8002 184L56.1002 187.8V195.6L49.2002 199.4H37.2002L30.3002 195.6V191.1H41.2002V194.4H45.4002V189L37.8002 188.8L30.2002 185.2V177.4L37.3002 173.6H48.8002ZM75.7002 178.3V185.6H71.9002V178.3H75.7002ZM86.0002 177.2L78.9002 173.4H61.3002V199.2H72.0002V190.3H79.1002L86.2002 186.5L86.0002 177.2ZM104.2 178.3V194.3H99.7002V178.3H104.2ZM114.9 177.4L107.8 173.6H96.4002L89.3002 177.4V195.7L96.4002 199.5H108.4L115.3 195.7L114.9 177.4ZM135.6 178.3V183.9H131.1V178.3H135.6ZM145.9 177.2L138.6 173.6H120.6V199.4H131.3V189H135.8V199.5H146.3V189L141 186.6L146.3 184.2L145.9 177.2ZM171.5 178.5H165.5V199.4H154.8V178.5H148.8V173.6H171.5V178.5ZM174.8 173.6H185.5V199.4H174.8V173.6ZM217.1 199.4H208.2L201.3 186.9V199.4H191.3V173.6H200.2L207.1 186.1V173.6H217.1V199.4ZM247.6 183.2H236.9V178.5H232V194.5H236.9V190.7H234.2V186H247.6V195.6L240.7 199.4H228.9L221.3 195.6V177.3L228.4 173.5H240.4L247.5 177.3L247.6 183.2ZM295.5 183.2H284.8V178.5H279.9V194.5H284.8V190.7H282.1V186H295.5V195.6L288.6 199.4H276.8L269.2 195.6V177.3L276.3 173.5H288.3L295.4 177.3L295.5 183.2ZM315.1 178.3V194.3H310.6V178.3H315.1ZM325.6 177.4L318.5 173.6H307.1L300 177.4V195.7L307.1 199.5H319.1L326 195.7L325.6 177.4ZM346.3 178.3V194.3H341.8V178.3H346.3ZM357 177.4L349.9 173.6H338.5L331.4 177.4V195.7L338.5 199.5H350.5L357.4 195.7L357 177.4ZM377.2 178.3V194.3H372.7V178.3H377.2ZM387.9 177.2L380.8 173.4H362.1V199.2H381L387.9 195.4V177.2ZM410.6 173.6L417.9 177.4V182.1H407.4V178.5H403V183.6L410.8 184L417.9 187.8V195.6L411 199.4H399.2L392.3 195.6V191.1H403V194.4H407.5V189L399.7 188.8L392.4 185.2V177.4L399.3 173.6H410.6Z" fill="white"/>
<path d="M335.645 76.1744C341.701 73.7696 344.662 66.9101 342.257 60.8532C339.853 54.7964 332.993 51.8358 326.936 54.2405C320.879 56.6453 317.919 63.5048 320.323 69.5616C322.728 75.6185 329.588 78.5791 335.645 76.1744Z" fill="white"/>
<path d="M320.4 79C322.6 77 324.2 75.2 325.3 73.7C326.4 71.9 326.6 70.4 326.6 68.8C326.6 67.5 326.2 66.1 325.7 65L323.9 65.7C324.3 66.6 324.6 67.7 324.6 68.6C324.6 69.9 324.2 71 323.3 72.4C322.4 73.7 321.1 75.5 318.6 77.3C318.7 77.2 320.4 79 320.4 79Z" fill="white"/>
<path d="M319.3 83.3998C323.3 80.4998 326 78.2998 327.3 76.0998C328.6 73.8998 329.3 71.3998 329.3 69.5998V68.2998L327.3 68.4998V69.5998C327.3 71.3998 326.9 73.1998 325.7 74.8998C324.4 76.8998 322.1 79.0998 318.1 81.7998L319.3 83.3998Z" fill="white"/>
<path d="M317.1 88.1C321.3 86.5 325.1 83.6 327.6 80.8C328.9 79.5 329.8 77.9 330.5 76.1C331.2 74.8 331.6 73.2 331.6 71.9V71.5L329.6 71.7V71.9C329.6 72.8 329.2 73.9 328.7 75.2C327.8 77.2 326 79.2 324 81.4C322 83.4 319.3 85.2 316.2 86.3L317.1 88.1Z" fill="white"/>
<path d="M333.6 68.7002C341.608 68.7002 348.1 62.2083 348.1 54.2002C348.1 46.1921 341.608 39.7002 333.6 39.7002C325.592 39.7002 319.1 46.1921 319.1 54.2002C319.1 62.2083 325.592 68.7002 333.6 68.7002Z" fill="white"/>
<path d="M339.1 68.1C331.5 71 322.8 67.4 319.7 59.9C316.8 52.3 320.4 43.6 327.9 40.5C335.5 37.4 344.2 41.2 347.3 48.7C350.5 56.3 346.7 65.2 339.1 68.1ZM328.2 40.9C320.9 43.8 317.1 52.3 320.2 59.6C323.3 66.9 331.6 70.7 338.9 67.6C346.2 64.7 350 56.2 346.9 48.9C343.8 41.6 335.6 38 328.2 40.9Z" fill="#373636"/>
<path d="M339.1 68.1C331.5 71 322.8 67.4 319.7 59.9C316.8 52.3 320.4 43.6 327.9 40.5C335.5 37.4 344.2 41.2 347.3 48.7C350.5 56.3 346.7 65.2 339.1 68.1ZM328.2 40.9C320.9 43.8 317.1 52.3 320.2 59.6C323.3 66.9 331.6 70.7 338.9 67.6C346.2 64.7 350 56.2 346.9 48.9C343.8 41.6 335.6 38 328.2 40.9Z" fill="#373636"/>
<path d="M327.8 67.7998C327.4 67.7998 327.4 67.5998 327.6 67.3998C330 64.2998 330.7 59.7998 329.2 55.9998C327.7 52.1998 324.3 49.4998 320.1 48.8998C319.9 48.8998 319.9 48.6998 319.9 48.4998C319.9 48.2998 320.1 48.2998 320.3 48.2998C324.5 48.9998 328.3 51.8998 329.9 55.8998C331.3 59.7998 330.5 64.2998 327.8 67.7998Z" fill="#EB8B23"/>
<path d="M320.2 50.2998C319.8 50.2998 319.8 50.0998 319.8 49.8998L320.9 47.4998C320.9 47.2998 321.1 47.2998 321.3 47.2998C321.5 47.2998 321.5 47.4998 321.5 47.6998L320.2 50.2998C320.4 50.2998 320.4 50.2998 320.2 50.2998ZM321.1 50.4998C320.7 50.4998 320.7 50.2998 320.7 50.0998L321.8 47.6998C321.8 47.4998 322 47.4998 322.2 47.4998C322.4 47.4998 322.4 47.6998 322.4 47.8998L321.1 50.4998C321.3 50.4998 321.3 50.4998 321.1 50.4998ZM322 50.6998C321.6 50.6998 321.6 50.4998 321.6 50.2998L322.9 47.8998C322.9 47.6998 323.1 47.6998 323.3 47.6998C323.5 47.6998 323.5 47.8998 323.5 48.0998L322 50.6998ZM322.9 50.8998C322.5 50.8998 322.5 50.6998 322.5 50.4998L323.8 48.0998C323.8 47.8998 324 47.8998 324.2 47.8998C324.4 47.8998 324.4 48.0998 324.4 48.2998L322.9 50.8998ZM324 51.5998C323.6 51.5998 323.6 51.3998 323.6 51.1998L324.9 48.7998C324.9 48.5998 325.1 48.5998 325.3 48.5998C325.5 48.5998 325.5 48.7998 325.5 48.9998L324 51.5998ZM324.7 52.2998C324.3 52.2998 324.3 52.0998 324.5 51.8998L326.1 49.6998C326.1 49.4998 326.3 49.4998 326.5 49.6998C326.7 49.6998 326.7 49.8998 326.5 50.0998L324.7 52.2998C324.9 52.2998 324.9 52.2998 324.7 52.2998ZM325.6 52.6998C325.2 52.6998 325.2 52.4998 325.4 52.2998L327.2 50.2998C327.2 50.0998 327.4 50.0998 327.6 50.2998C327.8 50.2998 327.8 50.4998 327.6 50.6998L325.6 52.6998ZM326.2 53.3998H325.8C325.6 53.1998 325.8 53.1998 325.8 52.9998L327.8 50.9998C328 50.7998 328 50.9998 328.2 50.9998C328.4 51.1998 328.2 51.1998 328.2 51.3998L326.2 53.3998ZM326.7 54.2998C326.5 54.2998 326.5 54.2998 326.3 54.0998V53.6998L328.5 52.0998H328.9V52.4998L326.7 54.2998C326.9 54.2998 326.9 54.2998 326.7 54.2998ZM327.3 55.1998C327.1 55.1998 327.1 55.1998 326.9 54.9998C326.9 54.7998 326.9 54.5998 327.1 54.5998L329.5 53.2998C329.7 53.2998 329.9 53.2998 329.9 53.4998C329.9 53.6998 329.9 53.8998 329.7 53.8998L327.3 55.1998ZM327.8 55.9998C327.6 55.9998 327.6 55.9998 327.4 55.7998C327.4 55.5998 327.4 55.3998 327.6 55.3998L330 54.0998C330.2 54.0998 330.4 54.0998 330.4 54.2998C330.4 54.4998 330.4 54.6998 330.2 54.6998L327.8 55.9998ZM330.7 55.9998L328 57.0998C327.8 57.0998 327.6 57.0998 327.6 56.8998C327.6 56.6998 327.6 56.4998 327.8 56.4998L330.5 55.3998C330.7 55.3998 330.9 55.3998 330.9 55.5998C330.9 55.9998 330.9 55.9998 330.7 55.9998ZM331.1 57.1998C331.1 57.3998 331.1 57.3998 331.1 57.1998L328.4 58.0998C328.2 58.0998 328 58.0998 328 57.8998C328 57.6998 328 57.4998 328.2 57.4998L330.9 56.5998C331.1 56.5998 331.3 56.5998 331.3 56.7998C331.3 57.1998 331.3 57.1998 331.1 57.1998ZM331.3 58.4998L328.4 58.8998C328.2 58.8998 328.2 58.8998 328 58.6998C328 58.4998 328 58.4998 328.2 58.2998L330.9 57.8998C331.1 57.8998 331.1 57.8998 331.3 58.0998C331.6 58.2998 331.3 58.4998 331.3 58.4998ZM331.6 59.5998L328.7 59.9998C328.5 59.9998 328.5 59.9998 328.3 59.7998C328.3 59.5998 328.3 59.5998 328.5 59.3998L331.4 58.9998C331.6 58.9998 331.6 58.9998 331.8 59.1998C331.8 59.5998 331.8 59.5998 331.6 59.5998ZM331.3 60.8998H328.4C328.2 60.8998 328.2 60.6998 328.2 60.6998C328.2 60.4998 328.4 60.4998 328.4 60.4998H331.3C331.6 60.6998 331.6 60.8998 331.3 60.8998C331.6 60.8998 331.6 60.8998 331.3 60.8998ZM331.6 62.4998C331.3 62.6998 331.3 62.4998 331.6 62.4998L328.7 62.0998C328.5 62.0998 328.5 61.8998 328.5 61.6998C328.5 61.4998 328.7 61.4998 328.9 61.4998L331.8 61.8998C332 61.8998 332 62.0998 332 62.2998L331.6 62.4998ZM331.3 64.0998L328.4 62.9998C328.2 62.9998 328.2 62.7998 328.2 62.5998C328.2 62.3998 328.4 62.3998 328.6 62.3998L331.3 63.4998V64.0998ZM330.9 65.1998L328.2 63.8998C328 63.8998 328 63.6998 328 63.4998C328 63.2998 328.2 63.2998 328.4 63.2998L330.8 64.5998C331.1 64.6998 331.1 64.8998 330.9 65.1998ZM330.2 66.4998L327.8 64.8998C327.6 64.8998 327.6 64.6998 327.8 64.4998C327.8 64.2998 328 64.2998 328.2 64.4998L330.4 66.0998C330.5 66.0998 330.5 66.2998 330.2 66.4998C330.5 66.4998 330.5 66.4998 330.2 66.4998ZM329.8 67.3998L327.4 66.0998C327.2 66.0998 327.2 65.8998 327.4 65.6998C327.4 65.4998 327.6 65.4998 327.8 65.6998L330 66.9998C329.8 66.9998 330 67.1998 329.8 67.3998Z" fill="#EB8B23"/>
<path d="M329.3 67.7999L326.6 66.4999C326.4 66.4999 326.4 66.2999 326.4 66.0999C326.4 65.8999 326.6 65.8999 326.8 65.8999L329.2 67.1999C329.6 67.5999 329.6 67.5999 329.3 67.7999Z" fill="#EB8B23"/>
<path d="M347.2 60.2998C342.7 59.5998 339.2 56.6998 337.6 52.6998C336 48.6998 336.7 43.9998 339.4 40.6998C339.4 40.4998 339.6 40.4998 339.8 40.6998C340 40.6998 340 40.8998 339.8 41.0998C337.4 44.1998 336.7 48.6998 338.2 52.4998C339.7 56.2998 343.1 58.9998 347.3 59.5998C347.5 59.5998 347.5 59.7998 347.5 59.9998L347.2 60.2998Z" fill="#EB8B23"/>
<path d="M340.5 42.2L337.8 41.1C337.6 41.1 337.6 40.9 337.6 40.7C337.6 40.5 337.8 40.5 338 40.5L340.4 41.6C340.7 41.8 340.7 42 340.5 42.2ZM340 42.9L337.3 41.8C337.1 41.8 337.1 41.6 337.1 41.4C337.1 41.2 337.3 41.2 337.5 41.2L339.9 42.3C340.3 42.5 340.3 42.7 340 42.9ZM339.6 43.8L336.7 42.7C336.5 42.7 336.5 42.5 336.5 42.3C336.5 42.1 336.7 42.1 336.9 42.1L339.6 43.2C339.8 43.3 339.8 43.3 339.6 43.8ZM338.9 44.7L336 43.6C335.8 43.6 335.8 43.4 335.8 43.2C335.8 43 336 43 336.2 43L338.9 44.1C339.1 44.2 339.4 44.2 338.9 44.7C339.1 44.7 339.1 44.5 338.9 44.7ZM338.7 45.8L335.8 44.9C335.6 44.9 335.6 44.7 335.6 44.5C335.6 44.3 335.8 44.3 336 44.3L338.7 45.2C338.9 45.4 338.9 45.6 338.7 45.8C338.9 45.8 338.9 45.8 338.7 45.8ZM338.5 46.7L335.6 46.3C335.4 46.3 335.4 46.1 335.4 45.9C335.4 45.7 335.6 45.7 335.8 45.7L338.5 46.1C338.7 46.2 338.7 46.5 338.5 46.7C338.7 46.7 338.7 46.7 338.5 46.7ZM338.5 47.8C338.2 47.8 338.2 47.8 338.5 47.8L335.6 47.4C335.4 47.4 335.4 47.2 335.4 47C335.4 46.8 335.6 46.8 335.8 46.8L338.7 47.2C338.9 47.2 338.9 47.4 338.9 47.6C338.5 47.6 338.5 47.6 338.5 47.8ZM338.5 48.7C338.2 48.7 338.2 48.7 338.5 48.7H335.6C335.4 48.7 335.4 48.5 335.4 48.5C335.4 48.3 335.6 48.3 335.6 48.3H338.5C338.7 48.5 338.7 48.5 338.5 48.7ZM338.5 49.6L335.6 50C335.4 50 335.4 50 335.2 49.8C335.2 49.6 335.2 49.6 335.4 49.4L338.1 49C338.3 49 338.3 49 338.5 49.2C338.7 49.4 338.7 49.6 338.5 49.6ZM338.7 50.5L336 51.4C335.8 51.4 335.6 51.4 335.6 51.2C335.6 51 335.6 50.8 335.8 50.8L338.5 49.9C338.7 49.9 338.9 49.9 338.9 50.1C338.9 50.3 338.9 50.5 338.7 50.5ZM338.9 51.8L336.2 52.7C336 52.7 335.8 52.7 335.8 52.5C335.8 52.3 335.8 52.1 336 52.1L338.7 51.2C338.9 51.2 339.1 51.2 339.1 51.4C339.1 51.6 339.1 51.6 338.9 51.8ZM336.9 53.6C336.7 53.6 336.5 53.6 336.5 53.4C336.5 53.2 336.5 53 336.7 53L339.1 51.9C339.3 51.9 339.5 51.9 339.5 52.1C339.5 52.3 339.5 52.5 339.3 52.5L336.9 53.6ZM337.4 54.7C337.2 54.7 337.2 54.7 337 54.5C337 54.3 337 54.1 337.2 54.1L339.6 52.8C339.8 52.8 340 52.8 340 53C340 53.2 340 53.4 339.8 53.4L337.4 54.7ZM338 56C337.8 56 337.8 56 337.6 55.8V55.4L340 54.1H340.4V54.5L338 56ZM338.7 56.9H338.3V56.5L340.5 54.9H340.9V55.3L338.7 56.9ZM339.8 57.6H339.4C339.2 57.4 339.4 57.4 339.4 57.2L341.4 55.2C341.6 55 341.6 55.2 341.8 55.2C342 55.4 341.8 55.4 341.8 55.6L339.8 57.6ZM340.7 58.9C340.3 58.9 340.3 58.7 340.5 58.5L342.3 56.5C342.3 56.3 342.5 56.3 342.7 56.5C342.9 56.5 342.9 56.7 342.7 56.9L340.7 58.9Z" fill="#EB8B23"/>
<path d="M341.8 59.7998C341.4 59.7998 341.4 59.5998 341.4 59.3998L342.7 56.9998C342.7 56.7998 342.9 56.7998 343.1 56.7998C343.3 56.7998 343.3 56.9998 343.3 57.1998L341.8 59.7998C342 59.7998 342 59.7998 341.8 59.7998ZM343.1 60.2998C342.7 60.2998 342.7 60.0998 342.7 59.8998L343.6 57.1998C343.6 56.9998 343.8 56.9998 344 56.9998C344.2 56.9998 344.2 57.1998 344.2 57.3998C344.3 57.3998 343.1 60.2998 343.1 60.2998ZM344.3 60.8998C343.9 60.8998 343.9 60.6998 343.9 60.4998L344.3 57.7998C344.3 57.5998 344.5 57.5998 344.7 57.5998C344.9 57.5998 344.9 57.7998 344.9 57.9998L344.3 60.8998C344.5 60.8998 344.5 60.8998 344.3 60.8998ZM345.4 61.1998C345 61.1998 345 60.9998 345 60.7998L345.7 58.0998C345.7 57.8998 345.9 57.8998 346.1 57.8998C346.3 57.8998 346.3 58.0998 346.3 58.2998L345.4 61.1998ZM346 61.3998C345.6 61.3998 345.6 61.1998 345.6 60.9998L346.5 58.2998C346.5 58.0998 346.7 58.0998 346.9 58.0998C347.1 58.0998 347.1 58.2998 347.1 58.4998L346 61.3998C346.3 61.1998 346 61.1998 346 61.3998Z" fill="#EB8B23"/>
<path d="M348.358 49.7233C354.113 41.6173 352.207 30.3808 344.101 24.6259C335.995 18.8709 324.758 20.7769 319.003 28.8829C313.248 36.9889 315.154 48.2253 323.26 53.9803C331.366 59.7352 342.603 57.8293 348.358 49.7233Z" fill="white"/>
<mask id="mask0_39_329" style="mask-type:luminance" maskUnits="userSpaceOnUse" x="315" y="21" width="37" height="37">
<path d="M348.491 49.923C354.246 41.817 352.34 30.5805 344.234 24.8256C336.128 19.0707 324.892 20.9766 319.137 29.0826C313.382 37.1886 315.288 48.425 323.394 54.18C331.5 59.9349 342.736 58.0289 348.491 49.923Z" fill="white"/>
</mask>
<g mask="url(#mask0_39_329)">
<path d="M333.799 55.4005C333.999 55.6005 333.999 55.8005 333.799 55.8005C333.799 55.8005 332.5 57.8005 331.4 58.2005C331.2 58.2005 331 58.2005 331 58.0005C331 57.8005 331 57.6005 331.2 57.6005C332.3 57.2005 333.4 55.4005 333.4 55.4005C333.6 55.2005 333.799 55.2005 333.799 55.4005Z" fill="#373636"/>
</g>
<mask id="mask1_39_329" style="mask-type:luminance" maskUnits="userSpaceOnUse" x="315" y="21" width="37" height="37">
<path d="M348.491 49.923C354.246 41.817 352.34 30.5805 344.234 24.8256C336.128 19.0707 324.892 20.9766 319.137 29.0826C313.382 37.1886 315.288 48.425 323.394 54.18C331.5 59.9349 342.736 58.0289 348.491 49.923Z" fill="white"/>
</mask>
<g mask="url(#mask1_39_329)">
<path d="M343.799 54.7005C343.799 54.7005 344 54.9005 344 55.1005C344 55.3005 343.8 55.5005 343.6 55.5005C342.5 55.3005 341.2 54.8005 341.2 54.8005C341 54.8005 341 54.6005 341 54.4005C341 54.2005 341.2 54.2005 341.4 54.2005C341.4 53.8005 342.499 54.5005 343.799 54.7005C343.799 54.5005 343.799 54.5005 343.799 54.7005Z" fill="#373636"/>
</g>
<mask id="mask2_39_329" style="mask-type:luminance" maskUnits="userSpaceOnUse" x="315" y="21" width="37" height="37">
<path d="M348.491 49.923C354.246 41.817 352.34 30.5805 344.234 24.8256C336.128 19.0707 324.892 20.9766 319.137 29.0826C313.382 37.1886 315.288 48.425 323.394 54.18C331.5 59.9349 342.736 58.0289 348.491 49.923Z" fill="white"/>
</mask>
<g mask="url(#mask2_39_329)">
<path d="M330.2 50.7003C330.4 51.1003 330.2 51.1003 330 51.1003C329.8 51.1003 326.7 50.9003 322 48.4003C321.8 48.4003 321.8 48.2003 321.8 48.0003C321.8 47.8003 322 47.8003 322.2 47.8003C326.9 50.5003 330 50.7003 330.2 50.7003C330 50.7003 330 50.7003 330.2 50.7003Z" fill="#373636"/>
</g>
<mask id="mask3_39_329" style="mask-type:luminance" maskUnits="userSpaceOnUse" x="315" y="21" width="37" height="37">
<path d="M348.491 49.923C354.246 41.817 352.34 30.5805 344.234 24.8256C336.128 19.0707 324.892 20.9766 319.137 29.0826C313.382 37.1886 315.288 48.425 323.394 54.18C331.5 59.9349 342.736 58.0289 348.491 49.923Z" fill="white"/>
</mask>
<g mask="url(#mask3_39_329)">
<path d="M325.6 34.2002C325.8 34.4002 325.8 34.6002 325.6 34.6002C321.8 38.4002 320.3 40.4002 320.3 40.4002C320.3 40.6002 319.9 40.6002 319.9 40.6002C319.7 40.6002 319.7 40.2002 319.7 40.2002C319.7 40.0002 321 38.0002 325 34.2002H325.6Z" fill="#373636"/>
</g>
<mask id="mask4_39_329" style="mask-type:luminance" maskUnits="userSpaceOnUse" x="315" y="21" width="37" height="37">
<path d="M348.491 49.923C354.246 41.817 352.34 30.5805 344.234 24.8256C336.128 19.0707 324.892 20.9766 319.137 29.0826C313.382 37.1886 315.288 48.425 323.394 54.18C331.5 59.9349 342.736 58.0289 348.491 49.923Z" fill="white"/>
</mask>
<g mask="url(#mask4_39_329)">
<path d="M333.1 36.7002C334.7 42.9002 335.5 46.1002 335.5 46.1002C335.5 46.3002 335.5 46.5002 335.3 46.5002C335.1 46.5002 334.9 46.5002 334.9 46.3002C334.9 46.3002 334 43.2002 332.7 37.2002C332.9 36.9002 332.9 36.7002 333.1 36.7002Z" fill="#373636"/>
</g>
<mask id="mask5_39_329" style="mask-type:luminance" maskUnits="userSpaceOnUse" x="315" y="21" width="37" height="37">
<path d="M348.491 49.923C354.246 41.817 352.34 30.5805 344.234 24.8256C336.128 19.0707 324.892 20.9766 319.137 29.0826C313.382 37.1886 315.288 48.425 323.394 54.18C331.5 59.9349 342.736 58.0289 348.491 49.923Z" fill="white"/>
</mask>
<g mask="url(#mask5_39_329)">
<path d="M347.8 41.8003C348 42.0003 348 42.2003 347.8 42.2003C345.8 45.5003 342.5 48.0003 342.5 48.2003C342.3 48.4003 342.1 48.2003 342.1 48.2003C341.9 48.0003 342.1 47.8003 342.1 47.8003C342.1 47.8003 345.2 45.4003 347.4 42.0003C347.4 41.8003 347.6 41.8003 347.8 41.8003Z" fill="#373636"/>
</g>
<mask id="mask6_39_329" style="mask-type:luminance" maskUnits="userSpaceOnUse" x="315" y="21" width="37" height="37">
<path d="M348.491 49.923C354.246 41.817 352.34 30.5805 344.234 24.8256C336.128 19.0707 324.892 20.9766 319.137 29.0826C313.382 37.1886 315.288 48.425 323.394 54.18C331.5 59.9349 342.736 58.0289 348.491 49.923Z" fill="white"/>
</mask>
<g mask="url(#mask6_39_329)">
<path d="M346.499 33.6005C346.699 33.6005 346.699 33.8005 346.699 34.0005C346.699 34.2005 346.499 34.2005 346.299 34.2005C346.299 34.2005 341.599 32.4005 338.299 31.8005C338.099 31.8005 337.899 31.6005 338.099 31.4005C338.099 31.2005 338.299 31.0005 338.499 31.2005C341.599 31.8005 346.299 33.6005 346.499 33.6005C346.299 33.6005 346.299 33.6005 346.499 33.6005Z" fill="#373636"/>
</g>
<mask id="mask7_39_329" style="mask-type:luminance" maskUnits="userSpaceOnUse" x="315" y="21" width="37" height="37">
<path d="M348.491 49.923C354.246 41.817 352.34 30.5805 344.234 24.8256C336.128 19.0707 324.892 20.9766 319.137 29.0826C313.382 37.1886 315.288 48.425 323.394 54.18C331.5 59.9349 342.736 58.0289 348.491 49.923Z" fill="white"/>
</mask>
<g mask="url(#mask7_39_329)">
<path d="M337.6 21.5006C337.8 21.7006 337.8 21.9006 337.6 21.9006C335.6 23.2006 334.5 25.0006 334.5 25.0006C334.3 25.2006 334.1 25.2006 334.1 25.0006C333.9 24.8006 333.9 24.6006 334.1 24.6006C334 24.9006 335.4 22.9006 337.6 21.5006C337.4 21.3006 337.4 21.3006 337.6 21.5006Z" fill="#373636"/>
</g>
<mask id="mask8_39_329" style="mask-type:luminance" maskUnits="userSpaceOnUse" x="315" y="21" width="37" height="37">
<path d="M348.491 49.923C354.246 41.817 352.34 30.5805 344.234 24.8256C336.128 19.0707 324.892 20.9766 319.137 29.0826C313.382 37.1886 315.288 48.425 323.394 54.18C331.5 59.9349 342.736 58.0289 348.491 49.923Z" fill="white"/>
</mask>
<g mask="url(#mask8_39_329)">
<path d="M343.6 24.0005C346.3 26.9005 348.1 30.7005 348.3 30.9005C348.3 31.1005 348.3 31.3005 348.1 31.3005C347.9 31.3005 347.7 31.3005 347.7 31.1005C347.7 31.1005 345.9 27.1005 343.2 24.4005C343 24.2005 343 24.0005 343.2 24.0005H343.6Z" fill="#373636"/>
</g>
<mask id="mask9_39_329" style="mask-type:luminance" maskUnits="userSpaceOnUse" x="315" y="21" width="37" height="37">
<path d="M348.491 49.923C354.246 41.817 352.34 30.5805 344.234 24.8256C336.128 19.0707 324.892 20.9766 319.137 29.0826C313.382 37.1886 315.288 48.425 323.394 54.18C331.5 59.9349 342.736 58.0289 348.491 49.923Z" fill="white"/>
</mask>
<g mask="url(#mask9_39_329)">
<path d="M326.199 26.9004C326.399 27.1004 326.399 27.1004 326.199 26.9004C326.599 27.1004 326.599 27.3004 326.399 27.3004C326.199 27.5004 325.999 27.5004 325.999 27.3004C325.999 27.3004 324.699 26.2004 321.799 25.7004C321.599 25.7004 321.399 25.5004 321.599 25.3004C321.599 25.1004 321.799 24.9004 321.999 25.1004C324.699 25.8004 325.999 26.6004 326.199 26.9004Z" fill="#373636"/>
</g>
<mask id="mask10_39_329" style="mask-type:luminance" maskUnits="userSpaceOnUse" x="315" y="21" width="37" height="37">
<path d="M348.491 49.923C354.246 41.817 352.34 30.5805 344.234 24.8256C336.128 19.0707 324.892 20.9766 319.137 29.0826C313.382 37.1886 315.288 48.425 323.394 54.18C331.5 59.9349 342.736 58.0289 348.491 49.923Z" fill="white"/>
</mask>
<g mask="url(#mask10_39_329)">
<path d="M318 30.4002C318.2 30.4002 318.2 30.6002 318.2 30.8002C316.6 34.8002 317.5 38.8002 317.5 38.8002C317.5 39.0002 317.5 39.2002 317.3 39.2002C317.1 39.2002 316.9 39.2002 316.9 39.0002C316.9 38.8002 316 35.0002 317.6 30.8002C317.5 30.4002 317.8 30.2002 318 30.4002Z" fill="#373636"/>
</g>
<mask id="mask11_39_329" style="mask-type:luminance" maskUnits="userSpaceOnUse" x="315" y="21" width="37" height="37">
<path d="M348.491 49.923C354.246 41.817 352.34 30.5805 344.234 24.8256C336.128 19.0707 324.892 20.9766 319.137 29.0826C313.382 37.1886 315.288 48.425 323.394 54.18C331.5 59.9349 342.736 58.0289 348.491 49.923Z" fill="white"/>
</mask>
<g mask="url(#mask11_39_329)">
<path d="M319.8 40.2003C318.9 39.8003 316.9 38.6003 316.9 38.6003C316.5 39.3003 315.6 40.2003 315.6 40.2003C315.8 44.0003 316.9 47.5003 319.4 50.7003C321 49.4003 322.1 48.5003 322.1 48.5003C320.2 44.5003 319.8 40.2003 319.8 40.2003ZM341.4 54.3003C341.4 54.3003 342.5 52.3003 342.5 48.1003C342.5 48.1003 339.8 47.7003 335.4 46.3003C335.4 46.3003 333.4 48.5003 330.1 51.0003C330.1 51.0003 331 53.2003 333.9 55.9003C333.6 55.8003 336.5 56.3003 341.4 54.3003ZM325.1 34.4003C325.1 34.4003 329.1 35.5003 333.1 37.1003C333.1 37.1003 336.4 33.3003 338.4 31.5003C338.4 31.5003 337.3 27.3003 334.4 24.8003C334.4 24.8003 329.7 25.0003 326.4 27.2003C326.2 27.3003 324.7 30.0003 325.1 34.4003ZM347.6 42.2003C347.6 42.2003 348.9 42.2003 351.2 42.9003L351.4 42.7003C352.1 38.9003 351.6 35.4003 350.1 32.0003C349.9 32.0003 349.7 31.8003 349.7 31.8003C349.7 31.8003 348.4 31.1003 347.9 30.7003C347.9 30.7003 347.5 32.0003 346.1 33.6003C345.8 33.8003 347.6 38.4003 347.6 42.2003Z" fill="#373636"/>
</g>
<path d="M344.3 24.6002C352.5 30.4002 354.5 41.7002 348.8 50.0002C343.1 58.3002 331.7 60.2002 323.4 54.5002C315.2 48.7002 313.2 37.4002 318.9 29.1002C324.6 20.8002 336 18.9002 344.3 24.6002ZM323.6 54.0002C331.6 59.6002 342.5 57.8002 348.3 49.8002C354.1 41.8002 352.1 30.9002 344.1 25.1002C336.1 19.5002 325.2 21.3002 319.4 29.3002C313.8 37.3002 315.3 48.5002 323.6 54.0002Z" fill="#373636"/>
<path d="M328.5 43.8002C340.54 43.8002 350.3 34.04 350.3 22.0002C350.3 9.96039 340.54 0.200195 328.5 0.200195C316.46 0.200195 306.7 9.96039 306.7 22.0002C306.7 34.04 316.46 43.8002 328.5 43.8002Z" fill="#333333"/>
<path d="M328.9 21.3L333.4 19.3C331.6 15.1 332.7 11.5 333.8 8.2C334.5 6.2 335.1 4.4 335.1 2.4C330.4 0.8 325.3 1.1 320.4 3.1L328.9 21.3ZM323.6 23.8L328.1 21.8L319.4 3.8C314.7 6 311.4 10 309.4 14.7C311 16 312.7 16.7 314.7 17.4C318 18.2 321.3 19.7 323.6 23.8ZM342.5 26.9C339.2 25.6 335.8 24.2 333.6 20.2L329.1 22.2L337.8 40.2C342.5 38 345.8 34 347.8 29.3C346.3 28.2 344.5 27.5 342.5 26.9Z" fill="#EC8B23"/>
<path d="M348 28.4C349.6 23.7 349.3 18.4 347.3 13.5L334.4 19.7C336.4 23.5 339.5 24.6 342.6 25.9C344.7 26.6 346.5 27.3 348 28.4ZM328.2 22.6L323.7 24.6C325.5 28.8 324.4 32.4 323.3 35.7C322.6 37.7 322 39.5 322 41.5C326.7 43.1 331.8 42.8 336.7 40.8C336.7 40.9 328.2 22.6 328.2 22.6Z" fill="#EC8B23"/>
<path d="M322.4 35.5999C323.5 32.2999 324.4 29.0999 322.8 25.0999L309.9 31.2999C312.3 35.9999 316.1 39.4999 321 41.2999C321.3 39.0999 321.8 37.2999 322.4 35.5999ZM334 18.5999L346.9 12.3999C344.5 7.69989 340.7 4.1999 335.8 2.3999C335.6 4.3999 335.1 6.1999 334.5 7.9999C333.6 11.4999 332.5 14.7999 334 18.5999ZM322.4 24.1999C320.4 20.3999 317.3 19.2999 314.2 17.9999C312.4 17.2999 310.4 16.6999 308.9 15.2999C307.3 19.9999 307.6 25.2999 309.6 30.1999L322.4 24.1999Z" fill="#EC8B23"/>
</svg>
