<svg width="10" height="6" viewBox="0 0 10 6" fill="none" xmlns="http://www.w3.org/2000/svg">
<path d="M0.200094 0.740094C0.267064 0.667859 0.347607 0.609524 0.437123 0.56842C0.52664 0.527316 0.623376 0.504248 0.721809 0.500533C0.820242 0.496819 0.918442 0.512531 1.0108 0.546772C1.10316 0.581013 1.18787 0.633112 1.26009 0.700094L5.00009 4.23009L8.74009 0.700094C8.88596 0.564834 9.07959 0.49306 9.27838 0.500561C9.47717 0.508063 9.66483 0.594225 9.80009 0.740094C9.93536 0.885963 10.0071 1.07959 9.99963 1.27838C9.99213 1.47717 9.90596 1.66483 9.76009 1.80009L5.51009 5.80009C5.37141 5.92872 5.18924 6.00019 5.00009 6.00019C4.81095 6.00019 4.62878 5.92872 4.49009 5.80009L0.240094 1.80009C0.16786 1.73313 0.109524 1.65258 0.06842 1.56307C0.0273159 1.47355 0.00424789 1.37681 0.000533453 1.27838C-0.00318098 1.17995 0.012531 1.08175 0.0467719 0.989387C0.0810128 0.897027 0.133112 0.812317 0.200094 0.740094Z" fill="black"/>
</svg>
